<svg xmlns="http://www.w3.org/2000/svg" >
  <defs>
	  <symbol id="brand">
			<path d="M89.8 44.8C58.6 62.8 33 77.8 33 78.1c0 .4 3.7 2.8 8.1 5.4 5.9 3.4 8.6 4.5 9.9 3.8 5.5-2.6 112-64.7 112-65.2 0-.6-1.2-1.3-11.5-7.2l-5-2.8-56.7 32.7zM108.8 59.8 52 92.5v75.2c0 52.5.3 75.3 1.1 75.3 1 0 71.6-40.4 73.2-41.9.4-.5.7-4.5.5-8.9l-.3-8.2-27.8 16.1c-15.3 8.8-28.6 15.9-29.5 15.7-1.6-.3-1.7-4.4-1.7-57.6v-57.3l40.8-23.6C141.8 58 149.3 54 150.5 55c1.2 1 1.5 5.7 1.7 26l.3 24.9 7.3-4.2 7.2-4.1-.1-25.1c-.1-13.7-.4-29.6-.8-35.2l-.6-10.2-56.7 32.7z"/><path d="M177 97.6c-20.6 11.8-38.6 22.2-39.9 23.1l-2.3 1.5 4 2.4 4 2.4 39.4-22.6c21.6-12.5 39.7-23 40.2-23.5.9-.8-4.9-4.9-6.9-4.9-.6 0-17.9 9.7-38.5 21.6zM30 158.3v75.5l7.8 4.6c4.3 2.5 8.2 4.6 8.5 4.6.4 0 .7-33.9.7-75.3V92.5L44.2 91c-1.5-.9-5.3-3.1-8.4-4.9L30 82.9v75.4zM186.5 107.6c-21.4 12.4-39.5 23.1-40.2 23.7-.9.9-1 13-.5 51.4l.7 50.1 39-22.5c21.5-12.3 39.3-22.8 39.8-23.2.4-.4.6-23.5.5-51.4l-.3-50.6-39 22.5zm35.3-13.4c.9.9 1.2 12.4 1.2 45.5V184l-3.7 2.4c-3.8 2.4-60.7 35.2-65.1 37.5-5.2 2.7-5.2 2.7-5.2-45.5v-44.3l2.3-1.6c3.6-2.7 67.1-39.3 68.3-39.4.5-.1 1.5.4 2.2 1.1z"/><path d="m213.3 102.3-3.3 1.9V174.9l3 1.6c1.6.8 3.4 1.5 4 1.5 1.1 0 1.2-28.6.1-59.6l-.6-18-3.2 1.9zM181.8 194.4c-13.6 7.8-25.4 14.9-26.3 15.6-1.7 1.5-2.1 7-.3 7 .6 0 14.1-7.5 30.1-16.7 28.8-16.6 28.9-16.7 26.7-18.5-1.2-1-3-1.8-3.9-1.8-.9.1-12.7 6.5-26.3 14.4zM132 177.5V228l4.1 2.6c2.2 1.4 4.3 2.3 4.6 2.1.2-.3.1-23.3-.3-51.1l-.7-50.6-3.4-2c-1.9-1.1-3.6-2-3.9-2-.2 0-.4 22.7-.4 50.5z"/>
		</symbol>
  </defs>
</svg>
